<svg xmlns="http://www.w3.org/2000/svg" width="43" height="41" viewBox="0 0 43 41" fill="none" id="Logo"><g id="logomark"><path fill-rule="evenodd" clip-rule="evenodd" d="M23.8054 9.04883C22.4346 9.04883 21.0772 9.31863 19.8107 9.84277C18.5443 10.3669 17.3935 11.1351 16.4243 12.1037C15.4549 13.0721 14.686 14.2219 14.1614 15.4873C13.6949 16.6127 13.4297 17.8099 13.3768 19.0246C13.3646 19.3026 13.2098 19.5571 12.9612 19.6812L9.59712 21.3619C9.34853 21.4861 9.18921 21.7405 9.20133 22.0186C9.25429 23.2332 9.51947 24.4304 9.98602 25.5558C10.5106 26.8212 11.2795 27.971 12.2488 28.9395C13.2181 29.908 14.3689 30.6762 15.6353 31.2004C16.9018 31.7245 18.2592 31.9943 19.63 31.9943C21.0008 31.9943 22.3582 31.7245 23.6247 31.2004C24.8911 30.6762 26.0419 29.908 27.0112 28.9395C27.9805 27.971 28.7494 26.8212 29.274 25.5558C29.7405 24.4304 30.0057 23.2332 30.0587 22.0186C30.0708 21.7405 30.2256 21.4861 30.4742 21.3619L33.8383 19.6812C34.0869 19.5571 34.2462 19.3026 34.2341 19.0246C34.1811 17.8099 33.9159 16.6127 33.4494 15.4873C32.9248 14.2219 32.1559 13.0721 31.1866 12.1037C30.2173 11.1351 29.0666 10.3669 27.8001 9.84277C26.5336 9.31863 25.1762 9.04883 23.8054 9.04883ZM28.6274 17.483C28.8316 17.9755 28.9587 18.4956 29.0049 19.025C29.0291 19.3022 28.8676 19.5571 28.619 19.6812L25.2549 21.3619C25.0064 21.4861 24.8537 21.7409 24.8295 22.0181C24.7832 22.5475 24.6562 23.0676 24.452 23.5602C24.1897 24.1929 23.8052 24.7678 23.3206 25.252C22.8359 25.7362 22.2605 26.1204 21.6273 26.3824C20.9941 26.6445 20.3154 26.7794 19.63 26.7794C18.9446 26.7794 18.2659 26.6445 17.6327 26.3824C16.9994 26.1204 16.4241 25.7362 15.9394 25.252C15.4548 24.7678 15.0703 24.1929 14.808 23.5602C14.6038 23.0676 14.4768 22.5475 14.4305 22.0181C14.4063 21.7409 14.5678 21.4861 14.8164 21.3619L18.1805 19.6812C18.429 19.5571 18.5817 19.3022 18.6059 19.025C18.6522 18.4956 18.7792 17.9755 18.9834 17.483C19.2457 16.8503 19.6302 16.2754 20.1148 15.7911C20.5995 15.3069 21.1749 14.9227 21.8081 14.6607C22.4413 14.3986 23.12 14.2637 23.8054 14.2637C24.4908 14.2637 25.1695 14.3986 25.8027 14.6607C26.436 14.9227 27.0113 15.3069 27.496 15.7911C27.9807 16.2754 28.3651 16.8503 28.6274 17.483Z" fill="#E22935"/><path fill-rule="evenodd" clip-rule="evenodd" d="M23.8055 0.705017C21.338 0.705017 18.8947 1.19061 16.6151 2.13407C14.3354 3.07753 12.2641 4.46039 10.5194 6.20366C8.77462 7.94696 7.39061 10.0165 6.44634 12.2942C5.56009 14.432 5.07753 16.7138 5.02157 19.0244C5.01483 19.3026 4.85898 19.5571 4.6104 19.6812L1.24631 21.3619C0.997745 21.486 0.839417 21.7404 0.846154 22.0186C0.90211 24.3292 1.38467 26.6111 2.27092 28.7488C3.21517 31.0266 4.59919 33.0961 6.34393 34.8394C8.08871 36.5827 10.16 37.9657 12.4397 38.9088C14.7193 39.8523 17.1626 40.3382 19.6301 40.3382C22.0975 40.3382 24.5408 39.8523 26.8205 38.9088C29.1001 37.9657 31.1714 36.5827 32.9162 34.8394C34.6609 33.0961 36.045 31.0266 36.9892 28.7488C37.8756 26.6111 38.358 24.3292 38.414 22.0186C38.4206 21.7404 38.5766 21.486 38.8249 21.3619L42.1891 19.6812C42.4378 19.5571 42.596 19.3026 42.5894 19.0244C42.5334 16.7138 42.051 14.432 41.1646 12.2942C40.2204 10.0165 38.8363 7.94696 37.0916 6.20366C35.3468 4.46039 33.2755 3.07753 30.9959 2.13407C28.7162 1.19061 26.2729 0.705017 23.8055 0.705017ZM33.1926 22.0186C33.2019 21.7405 33.3573 21.486 33.6058 21.3619L36.9699 19.6812C37.2185 19.5571 37.3775 19.3026 37.3679 19.0245C37.3134 17.3988 36.9666 15.7949 36.3426 14.2899C35.6607 12.6449 34.6611 11.1502 33.401 9.89114C32.1409 8.6321 30.6449 7.63338 28.9985 6.95199C27.3521 6.27059 25.5875 5.91988 23.8055 5.91988C22.0234 5.91988 20.2588 6.27059 18.6124 6.95199C16.966 7.63338 15.47 8.6321 14.21 9.89114C12.9499 11.1502 11.9503 12.6449 11.2683 14.2899C10.6444 15.7949 10.2975 17.3988 10.243 19.0245C10.2336 19.3026 10.0783 19.5571 9.82968 19.6812L6.46561 21.3619C6.21702 21.486 6.05821 21.7405 6.06755 22.0186C6.12205 23.6442 6.46898 25.2481 7.09291 26.7532C7.77486 28.3982 8.77443 29.8929 10.0345 31.1519C11.2946 32.411 12.7906 33.4097 14.437 34.0911C16.0834 34.7725 17.848 35.1232 19.6301 35.1232C21.4121 35.1232 23.1767 34.7725 24.8231 34.0911C26.4695 33.4097 27.9655 32.411 29.2256 31.1519C30.4857 29.8929 31.4852 28.3982 32.1672 26.7532C32.7912 25.2481 33.1381 23.6442 33.1926 22.0186Z" fill="#E22935"/><g id="highlight"><path d="M42.5894 19.0536H37.3683C37.3661 19.3203 37.2097 19.5614 36.97 19.6812L33.6058 21.3619C33.366 21.4817 33.2129 21.7228 33.1941 21.9894H38.4151C38.4319 21.7228 38.5854 21.4817 38.8253 21.3619L42.1894 19.6812C42.429 19.5614 42.585 19.3204 42.5894 19.0536Z" fill="#FF6670"/><path d="M0.846069 21.9894H6.06721C6.06949 21.7228 6.22577 21.4817 6.4656 21.3619L9.82971 19.6812C10.0696 19.5614 10.2226 19.3203 10.2415 19.0536H5.02032C5.0038 19.3204 4.85026 19.5614 4.61043 19.6812L1.24633 21.3619C1.00649 21.4817 0.850664 21.7228 0.846069 21.9894Z" fill="#FF6670"/><path d="M13.3751 19.0536C13.3538 19.3202 13.2012 19.5614 12.9613 19.6812L9.59721 21.3619C9.35735 21.4817 9.20059 21.7229 9.20081 21.9894H14.4288C14.4177 21.7234 14.5765 21.4818 14.8165 21.3619L18.1806 19.6812C18.4206 19.5614 18.5711 19.3197 18.6031 19.0536H13.3751Z" fill="#FF6670"/><path d="M29.0068 19.0536C29.0179 19.3197 28.8591 19.5614 28.6191 19.6812L25.255 21.3619C25.015 21.4818 24.8644 21.7234 24.8325 21.9894H30.0605C30.0818 21.7229 30.2344 21.4817 30.4742 21.3619L33.8384 19.6812C34.0782 19.5614 34.235 19.3202 34.2348 19.0536H29.0068Z" fill="#FF6670"/></g></g></svg>